<svg xmlns="http://www.w3.org/2000/svg" fill="none" viewBox="0 0 207 55"><path fill="url(#a)" d="M21.216 25.474a2.064 2.064 0 1 1 0 4.128 2.064 2.064 0 0 1 0-4.128ZM2.383 11.102a1.662 1.662 0 1 0 0-3.324 1.662 1.662 0 0 0 0 3.324Zm37.904 7.614a1.662 1.662 0 1 0 1.662-2.878l-7.317-4.225c-.775-.448-1.433-.459-2.204-.018l-3.44 1.998.009-3.98c-.004-.888-.342-1.452-1.117-1.9L16.09.907c-.774-.448-1.433-.458-2.204-.018L8.252 4.13c-.413.204-.715.472-.907.804-.192.332-.273.728-.243 1.188l.01 13.66c.004.889.343 1.453 1.117 1.9l5.922 3.42c.61.351 1.727.333 2.27-.608a1.7 1.7 0 0 0 .218-.76l.003-11.512 2.934 1.694.027 6.216c-.034.57.25 1.103.802 1.423.775.447 1.736.19 2.183-.586.16-.277.232-.53.25-.815l.006-6.786c-.004-.889-.342-1.453-1.117-1.9l-5.922-3.42c-.775-.447-1.767-.135-2.215.64a1.7 1.7 0 0 0-.217.76l-.004 11.512-2.933-1.694-.024-12.486 4.57-2.676 10.792 6.232.028 6.216c.021.603.304 1.135.803 1.423.331.192 1.036.377 1.687.015l5.396-3.084 6.598 3.81Zm4.58.726a1.662 1.662 0 1 0 2.878 1.662 1.662 1.662 0 0 0-2.878-1.662ZM19.32 48.467a1.662 1.662 0 0 0 1.662 2.878l7.317-4.225c.775-.447 1.113-1.012 1.117-1.9l-.01-3.98 3.441 1.999c.771.44 1.43.43 2.204-.018l11.788-6.807c.775-.448 1.114-1.012 1.118-1.9l.01-6.501c.03-.46-.051-.856-.242-1.188-.192-.332-.495-.601-.908-.805l-11.833-6.821c-.771-.44-1.429-.43-2.204.018l-5.922 3.419c-.608.352-1.151 1.33-.608 2.27.128.222.311.411.55.569l9.965 5.759-2.933 1.694-5.396-3.084c-.477-.315-1.08-.336-1.633-.017a1.582 1.582 0 0 0-.585 2.183c.16.277.343.467.582.624l5.873 3.399c.77.44 1.428.43 2.203-.018l5.922-3.42c.775-.447 1-1.463.553-2.238a1.697 1.697 0 0 0-.55-.568l-9.966-5.76 2.934-1.693 10.824 6.223.032 5.296-10.793 6.232-5.396-3.084c-.532-.283-1.135-.304-1.633-.017-.332.192-.845.71-.857 1.455l-.028 6.216-6.598 3.81Zm-2.918 3.604a1.661 1.661 0 1 0-2.878 1.66 1.661 1.661 0 0 0 2.878-1.66ZM4.043 15.43a1.662 1.662 0 0 0-3.323 0v8.45c0 .896.32 1.471 1.086 1.918l3.451 1.982-3.45 1.982C1.04 30.209.72 30.784.72 31.68v13.614c0 .895.32 1.47 1.086 1.918l5.624 3.26c.384.256.767.383 1.15.383.384 0 .767-.127 1.151-.383l11.822-6.84c.768-.447 1.087-1.022 1.087-1.917v-6.84c0-.703-.575-1.661-1.662-1.661a1.7 1.7 0 0 0-.766.192l-9.97 5.752V35.77l5.368-3.132c.511-.255.831-.767.831-1.405 0-.896-.703-1.599-1.598-1.599-.32 0-.575.064-.83.192l-5.88 3.388c-.767.447-1.086 1.023-1.086 1.918v6.839c0 .894.767 1.598 1.661 1.598.256 0 .512-.064.767-.192l9.97-5.753v3.388l-10.8 6.264-4.602-2.62V32.19l5.368-3.132c.511-.32.831-.83.831-1.406 0-.384-.192-1.087-.83-1.47l-5.37-3.132v-7.62Z"/><path fill="#FFFFFF" fill-rule="evenodd" d="M66.838 37.15v-6.448h3.488l5.675 6.448h4.49l-6.139-6.845c1.846-.398 3.382-1.41 4.194-3.206.4-.884.573-1.858.573-2.825 0-.909-.18-1.813-.543-2.646-1.128-2.582-3.623-3.782-6.35-3.782-2.895 0-5.79-.027-8.685-.027h-.313V37.15h3.61Zm0-9.792V21.19h5.388c.932 0 1.824.275 2.457.987.521.587.773 1.372.773 2.15 0 .57-.123 1.144-.411 1.64-.6 1.03-1.707 1.391-2.846 1.391h-5.361Zm22.895-9.512V37.15h3.583V17.846h-3.584Zm20.748-.08L102.47 37.15h4.038l5.729-14.64 5.753 14.64h4.011l-7.984-19.385h-3.536Zm20.7.08V37.15h13.441v-3.398h-9.831V17.846h-3.61Zm18.513 3.317h6.128v15.988h3.636V21.163h6.101v-3.317h-15.865v3.317Zm25.333-3.317V37.15h3.584V17.846h-3.584Zm13.798 9.8c.01 1.84.434 3.69 1.355 5.293 1.859 3.237 5.167 4.584 8.788 4.584 2.726 0 5.271-.932 7.227-2.86l.224-.222-2.495-2.496-.222.221c-1.21 1.21-3.03 1.933-4.734 1.933-2.372 0-4.505-.865-5.695-3.005-.588-1.055-.855-2.276-.865-3.479-.009-1.148.236-2.311.76-3.337 1.156-2.26 3.322-3.275 5.8-3.275 1.715 0 3.373.622 4.603 1.829l.217.213 2.448-2.35-.226-.227a9.847 9.847 0 0 0-7.042-2.916c-3.85 0-7.239 1.648-9.015 5.16-.769 1.522-1.137 3.233-1.128 4.934Z" clip-rule="evenodd"/><defs><linearGradient id="a" x1=".131" x2="48.563" y1="27.564" y2="27.564" gradientUnits="userSpaceOnUse"><stop stop-color="#1047B4"/><stop offset="1" stop-color="#0CF"/></linearGradient></defs></svg>
